<?xml version="1.0" encoding="UTF-8" standalone="no"?>
<!DOCTYPE svg PUBLIC "-//W3C//DTD SVG 1.1//EN" "http://www.w3.org/Graphics/SVG/1.1/DTD/svg11.dtd">
<svg width="100%" height="100%" viewBox="0 0 221 45" version="1.1" xmlns="http://www.w3.org/2000/svg" xmlns:xlink="http://www.w3.org/1999/xlink" xml:space="preserve" xmlns:serif="http://www.serif.com/" style="fill-rule:evenodd;clip-rule:evenodd;stroke-linejoin:round;stroke-miterlimit:1.41421;">
    <g transform="matrix(0.0884351,0,0,0.0884351,110.455,22.4503)">
        <g id="FRUIT-BAE-ORANGE-PINK-text" serif:id="FRUIT BAE ORANGE PINK text" transform="matrix(1,0,0,1,-1248.99,-253.862)">
            <g transform="matrix(4.16667,0,0,4.16667,4.16667,4.16667)">
                <g id="Layer-1" serif:id="Layer 1">
                    <path d="M65.343,35.486L77.235,35.486C79.371,35.486 81.115,37.23 81.115,39.366L81.115,46.303C81.115,48.439 79.371,50.183 77.235,50.183L65.343,50.183L65.343,69.23L77.235,69.23C79.371,69.23 81.115,70.973 81.115,73.109L81.115,80.047C81.115,82.183 79.371,83.927 77.235,83.927L65.343,83.927L65.343,115.974C65.343,118.11 63.599,119.854 61.463,119.854L54.526,119.854C52.39,119.854 50.646,118.11 50.646,115.974L50.646,83.927L31.423,83.927L31.423,115.974C31.423,118.11 29.68,119.854 27.544,119.854L20.606,119.854C18.47,119.854 16.727,118.11 16.727,115.974L16.727,83.927L3.88,83.927C1.744,83.927 0,82.183 0,80.047L0,73.109C0,70.973 1.744,69.23 3.88,69.23L16.727,69.23L16.727,50.183L3.88,50.183C1.744,50.183 0,48.439 0,46.303L0,39.366C0,37.23 1.744,35.486 3.88,35.486L16.727,35.486L16.727,3.916C16.727,1.78 18.47,0.036 20.606,0.036L27.544,0.036C29.68,0.036 31.423,1.78 31.423,3.916L31.423,35.486L50.646,35.486L50.646,3.916C50.646,1.78 52.39,0.036 54.526,0.036L61.463,0.036C63.6,0.036 65.343,1.78 65.343,3.916L65.343,35.486ZM171.373,65.461L171.373,115.974C171.373,118.112 169.631,119.854 167.493,119.854L160.556,119.854C158.418,119.854 156.676,118.112 156.676,115.974L156.676,0.036L191.392,0.036C204.818,0.036 215.797,11.015 215.797,24.441L215.797,39.856C215.797,47.541 212.125,55.155 205.399,58.696C205.542,58.751 205.684,58.81 205.826,58.871C212.164,61.607 215.797,69.434 215.797,76.077L215.797,119.854L207.703,119.854C204.066,119.854 201.1,116.889 201.1,113.251C201.1,101.473 201.106,89.695 201.111,77.917C201.114,71.301 197.121,65.461 190.081,65.461L171.373,65.461ZM278.666,0.036L285.603,0.036C287.741,0.036 289.483,1.778 289.483,3.916L289.483,96.007C289.483,109.143 278.772,119.854 265.637,119.854C261.827,119.854 258.018,119.854 254.208,119.854C241.073,119.854 230.362,109.143 230.362,96.007L230.362,3.916C230.362,1.778 232.104,0.036 234.242,0.036L241.179,0.036C243.317,0.036 245.059,1.778 245.059,3.916L245.059,92.7C245.059,99.56 250.656,105.157 257.516,105.157L262.329,105.157C269.189,105.157 274.786,99.56 274.786,92.7L274.786,3.916C274.786,1.778 276.528,0.036 278.666,0.036ZM310.217,0.036L317.154,0.036C319.29,0.036 321.034,1.78 321.034,3.916L321.034,115.974C321.034,118.11 319.29,119.854 317.154,119.854L310.217,119.854C308.081,119.854 306.337,118.11 306.337,115.974L306.337,3.916C306.337,1.78 308.081,0.036 310.217,0.036ZM368.908,14.733L368.908,115.974C368.908,118.112 367.167,119.854 365.029,119.854L358.091,119.854C355.953,119.854 354.212,118.112 354.212,115.974L354.212,14.733L333.857,14.733C331.719,14.733 329.978,12.991 329.978,10.853L329.978,3.916C329.978,1.778 331.719,0.036 333.857,0.036C352.326,0.036 370.794,0.036 389.263,0.036C391.4,0.036 393.142,1.778 393.142,3.916L393.142,10.853C393.142,12.991 391.4,14.733 389.263,14.733L368.908,14.733ZM108.71,67.292L108.71,115.974C108.71,118.112 106.969,119.854 104.831,119.854L97.893,119.854C95.756,119.854 94.014,118.112 94.014,115.974C94.014,78.621 94.014,41.269 94.014,3.916C94.014,1.778 95.756,0.036 97.893,0.036L142.971,0.036C145.109,0.036 146.85,1.778 146.85,3.916L146.85,10.853C146.85,12.991 145.109,14.733 142.971,14.733L108.71,14.733L108.71,52.596L141.059,52.596C143.197,52.596 144.939,54.338 144.939,56.475L144.939,63.413C144.939,65.551 143.197,67.292 141.059,67.292L108.71,67.292ZM558.695,14.697L558.695,50.675L588.76,50.675C590.898,50.675 592.64,52.417 592.64,54.555L592.64,61.493C592.64,63.63 590.898,65.372 588.76,65.372L558.695,65.372L558.695,105.121L593.637,105.121C595.775,105.121 597.517,106.862 597.517,109L597.517,115.938C597.517,118.076 595.775,119.817 593.637,119.817L550.6,119.817C546.963,119.817 543.998,116.852 543.998,113.215C543.998,77.678 543.998,42.14 543.998,6.602C543.998,2.965 546.963,0 550.6,0L593.637,0C595.775,0 597.517,1.742 597.517,3.879L597.517,10.817C597.517,12.955 595.775,14.697 593.637,14.697L558.695,14.697ZM514.314,86.785L488.058,86.785L482.055,116.697C481.688,118.522 480.112,119.814 478.25,119.814L467.084,119.814L490.067,5.304C490.692,2.193 493.37,0 496.542,0L505.83,0C509.002,0 511.68,2.193 512.304,5.304L535.288,119.814L524.121,119.814C522.259,119.814 520.683,118.522 520.317,116.697L514.314,86.785ZM449.23,58.014C455.644,60.351 460.276,66.379 460.276,73.478L460.276,97.066C460.276,102.516 458.549,107.84 455.029,112.04C450.636,117.281 444.291,119.817 437.524,119.817L402.894,119.817L402.894,0L436.429,0C449.547,0 460.276,10.729 460.276,23.846L460.276,40.353C460.276,47.933 455.807,54.692 449.23,58.014ZM31.423,50.183L31.423,69.23L50.646,69.23L50.646,50.183L31.423,50.183ZM171.373,14.733L171.373,51.214L188.654,51.214C195.252,51.214 201.111,47.181 201.111,40.139L201.111,27.19C201.111,20.342 195.502,14.733 188.654,14.733L171.373,14.733ZM490.98,72.223L511.391,72.223L501.187,21.38L490.98,72.223ZM417.591,14.733L417.591,51.156L436.753,51.156C441.605,51.156 445.579,47.182 445.579,42.33L445.579,23.559C445.579,18.707 441.605,14.733 436.753,14.733L417.591,14.733ZM417.591,65.853L417.591,105.121L436.753,105.121C442.011,105.121 445.579,101.59 445.579,96.294L445.579,74.679C445.579,69.479 441.984,65.853 436.753,65.853L417.591,65.853Z" style="fill:white;"/>
                </g>
            </g>
        </g>
    </g>
</svg>
