<?xml version="1.0" encoding="UTF-8" standalone="no"?>
<!DOCTYPE svg PUBLIC "-//W3C//DTD SVG 1.1//EN" "http://www.w3.org/Graphics/SVG/1.1/DTD/svg11.dtd">
<svg width="100%" height="100%" viewBox="0 0 32 39" version="1.1" xmlns="http://www.w3.org/2000/svg" xmlns:xlink="http://www.w3.org/1999/xlink" xml:space="preserve" xmlns:serif="http://www.serif.com/" style="fill-rule:evenodd;clip-rule:evenodd;stroke-linejoin:round;stroke-miterlimit:1.41421;">
    <g transform="matrix(0.0757125,0,0,0.0757125,0,-0.00174216)">
        <path d="M214.944,0.023C74.624,0.023 0,89.943 0,187.991C0,233.463 25.408,290.167 66.08,308.151C72.256,310.935 75.616,309.751 76.992,304.023C78.208,299.671 83.552,278.711 86.144,268.823C86.944,265.655 86.528,262.903 83.968,259.927C70.464,244.311 59.744,215.863 59.744,189.175C59.744,120.791 114.112,54.391 206.624,54.391C286.624,54.391 342.592,106.359 342.592,180.695C342.592,264.695 298.144,322.807 240.384,322.807C208.416,322.807 184.608,297.719 192.16,266.679C201.28,229.719 219.168,189.975 219.168,163.319C219.168,139.415 205.664,119.639 178.08,119.639C145.536,119.639 119.136,151.863 119.136,195.127C119.136,222.615 128.864,241.175 128.864,241.175C128.864,241.175 96.672,371.223 90.688,395.511C80.576,436.631 92.064,503.223 93.056,508.951C93.664,512.119 97.216,513.111 99.2,510.519C102.368,506.359 141.28,450.839 152.192,410.711C156.16,396.087 172.448,336.791 172.448,336.791C183.168,356.151 214.112,372.375 247.072,372.375C345.12,372.375 415.968,286.199 415.968,179.255C415.616,76.727 327.872,0.023 214.944,0.023Z" style="fill:rgb(238,48,55);fill-rule:nonzero;"/>
    </g>
</svg>
